<svg width="48" height="52" viewBox="0 0 48 52" fill="none" xmlns="http://www.w3.org/2000/svg">
<path d="M47.1559 21.693V46.2863C47.1559 48.8702 45.0627 50.9644 42.4788 50.9644H5.43468C2.8508 50.9644 0.757568 48.8702 0.757568 46.2863V21.693L23.9567 18.27L47.1559 21.693Z" fill="#E2E2E2"/>
<path d="M3.78816 46.2863V21.693L25.472 18.4935L23.9567 18.27L0.757568 21.693V46.2863C0.757568 48.8702 2.8508 50.9644 5.43468 50.9644H8.46527C5.88139 50.9644 3.78816 48.8702 3.78816 46.2863V46.2863Z" fill="#C1BFC5"/>
<path d="M47.1559 9.92659V21.6931H0.757568V9.92659C0.757568 7.34372 2.8508 5.24948 5.43468 5.24948H42.4788C45.0627 5.24948 47.1559 7.34372 47.1559 9.92659V9.92659Z" fill="#0057FF"/>
<path d="M37.0308 0.757629C35.7029 0.757629 34.6265 1.8341 34.6265 3.162V7.02115C34.6265 8.34906 35.7029 9.42552 37.0308 9.42552C38.3587 9.42552 39.4352 8.34906 39.4352 7.02115V3.162C39.4352 1.8341 38.3587 0.757629 37.0308 0.757629V0.757629Z" fill="#FAB659"/>
<path d="M10.8829 0.757629C12.2108 0.757629 13.2873 1.8341 13.2873 3.162V7.02115C13.2873 8.34906 12.2108 9.42552 10.8829 9.42552C9.55498 9.42552 8.47852 8.34906 8.47852 7.02115V3.162C8.47852 1.8341 9.55498 0.757629 10.8829 0.757629V0.757629Z" fill="#FAB659"/>
<path d="M5.43476 51.7221H33.6108C34.0292 51.7221 34.3684 51.3829 34.3684 50.9644C34.3684 50.546 34.0292 50.2068 33.6108 50.2068H5.43476C3.27354 50.2068 1.5153 48.448 1.5153 46.2863V22.4507H9.35432C9.77275 22.4507 10.112 22.1115 10.112 21.6931C10.112 21.2746 9.77275 20.9354 9.35432 20.9354H1.5153V9.9266C1.5153 7.76538 3.27354 6.00714 5.43476 6.00714H7.72083V7.02107C7.72083 8.76457 9.13935 10.1831 10.8829 10.1831C12.6264 10.1831 14.0449 8.76457 14.0449 7.02107V6.00714H33.8688V7.02107C33.8688 8.76457 35.2873 10.1831 37.0308 10.1831C38.7743 10.1831 40.1928 8.76457 40.1928 7.02107V6.00714H42.4789C44.6401 6.00714 46.3983 7.76538 46.3983 9.9266V20.9354H12.3849C11.9767 20.9354 11.6273 21.2842 11.6273 21.6931C11.6273 22.1115 11.9665 22.4507 12.3849 22.4507H46.3983V46.2863C46.3983 48.448 44.6401 50.2068 42.4789 50.2068H36.6414C36.2229 50.2068 35.8837 50.546 35.8837 50.9644C35.8837 51.3829 36.2229 51.7221 36.6414 51.7221H42.4789C45.4756 51.7221 47.9136 49.2836 47.9136 46.2863V9.9266C47.9136 6.92985 45.4756 4.49184 42.4789 4.49184H40.1928V3.16202C40.1928 1.41852 38.7743 0 37.0308 0C35.2873 0 33.8688 1.41852 33.8688 3.16202V4.49194H14.0449V3.16202C14.0449 1.41852 12.6264 0 10.8829 0C9.13935 0 7.72083 1.41852 7.72083 3.16202V4.49194H5.43476C2.43801 4.49194 0 6.92995 0 9.9267V46.2864C0 49.2836 2.43801 51.7221 5.43476 51.7221V51.7221ZM35.3841 3.16202C35.3841 2.25405 36.1228 1.5153 37.0308 1.5153C37.9388 1.5153 38.6775 2.25405 38.6775 3.16202V7.02117C38.6775 7.92914 37.9388 8.66789 37.0308 8.66789C36.1228 8.66789 35.3841 7.92914 35.3841 7.02117V3.16202ZM9.23613 3.16202C9.23613 2.25405 9.97489 1.5153 10.8829 1.5153C11.7908 1.5153 12.5296 2.25405 12.5296 3.16202V7.02117C12.5296 7.92914 11.7908 8.66789 10.8829 8.66789C9.97489 8.66789 9.23613 7.92914 9.23613 7.02117V3.16202Z" fill="black"/>
<path d="M30.6053 26H25.2632H23.7368H18.3947H16.8684H10V32.2069V33.5862V38.4138V39.7931V46H16.8684H18.3947H23.7368H25.2632H30.6053H32.1316H39V39.7931V38.4138V33.5862V32.2069V26H32.1316H30.6053ZM25.2632 27.3793H30.6053V32.2069H25.2632V27.3793ZM30.6053 38.4138H25.2632V33.5862H30.6053V38.4138ZM18.3947 33.5862H23.7368V38.4138H18.3947V33.5862ZM18.3947 27.3793H23.7368V32.2069H18.3947V27.3793ZM11.5263 27.3793H16.8684V32.2069H11.5263V27.3793ZM11.5263 33.5862H16.8684V38.4138H11.5263V33.5862ZM16.8684 44.6207H11.5263V39.7931H16.8684V44.6207ZM23.7368 44.6207H18.3947V39.7931H23.7368V44.6207ZM30.6053 44.6207H25.2632V39.7931H30.6053V44.6207ZM37.4737 44.6207H32.1316V39.7931H37.4737V44.6207ZM37.4737 38.4138H32.1316V33.5862H37.4737V38.4138ZM37.4737 27.3793V32.2069H32.1316V27.3793H37.4737Z" fill="black" stroke="#E2E2E2" stroke-linecap="round" stroke-linejoin="round"/>
</svg>
