<svg width="30" height="30" viewBox="0 0 30 30" fill="none" xmlns="http://www.w3.org/2000/svg">
<path d="M14.9993 12.4275L4.10379 1.53275L4.10337 1.53232C3.39324 0.823101 2.24324 0.823101 1.53312 1.53232L1.53267 1.53277C0.822444 2.24299 0.822444 3.3941 1.53267 4.10432L1.53268 4.10434L12.3413 14.9125L1.54079 25.713C0.830868 26.4229 0.830568 27.5734 1.5399 28.2837C1.89562 28.6403 2.36374 28.8171 2.82637 28.8171C3.28958 28.8171 3.75712 28.6402 4.11264 28.2839C4.11271 28.2838 4.11277 28.2837 4.11284 28.2837L14.999 17.3976L25.886 28.2846C26.2412 28.6398 26.7082 28.8171 27.1715 28.8171C27.6342 28.8171 28.1023 28.6403 28.458 28.2837C29.1673 27.5734 29.167 26.423 28.4571 25.713C28.4571 25.713 28.4571 25.713 28.4571 25.713L17.657 14.9125L28.4648 4.10392C28.4648 4.10391 28.4648 4.1039 28.4649 4.10389C29.1751 3.39367 29.175 2.24258 28.4648 1.53236L28.4644 1.53191C27.7545 0.822943 26.6038 0.822297 25.8937 1.53236L25.8937 1.53239L14.9993 12.4275Z" fill="white" stroke="white" stroke-width="2"/>
</svg>
