<svg width="47" height="58" viewBox="0 0 47 58" fill="none" xmlns="http://www.w3.org/2000/svg">
<path d="M0.782327 28.1116C0.782327 28.1116 3.05962 31.4571 7.83262 34.289C7.83262 34.289 4.37581 5.07393 26.8992 0C21.1286 21.1789 34.2395 27.1517 39.0187 15.9625C46.9999 26.6184 40.94 35.9151 40.94 35.9151C44.2126 36.3866 46.9616 32.8113 46.9616 32.8113C46.9862 33.2517 46.9999 33.6951 46.9999 34.1417C47 47.1203 36.4787 57.6416 23.5 57.6416C10.5213 57.6416 0 47.1203 0 34.1416C0 32.0569 0.272897 30.036 0.782327 28.1116Z" fill="#4C91ED"/>
<path d="M46.9617 32.8113C46.9617 32.8113 44.2127 36.3866 40.9401 35.9151C40.9401 35.9151 47 26.6184 39.0188 15.9625C34.2396 27.1517 21.1287 21.1789 26.8993 0C25.693 0.271771 24.5618 0.61323 23.5 1.01526V57.6416C36.4787 57.6416 47 47.1203 47 34.1416C47 33.695 46.9863 33.2517 46.9617 32.8113Z" fill="#2F80ED"/>
<path d="M13.1938 47.3355C13.1938 53.0274 17.8081 57.6417 23.5 57.6417C29.1919 57.6417 33.8061 53.0274 33.8061 47.3355C33.8061 44.289 32.4843 41.5512 30.3828 39.6645C26.3981 45.0779 20.7197 36.8661 25.145 30.8694C25.145 30.8694 13.1938 32.3671 13.1938 47.3355Z" fill="#0057FF"/>
<path d="M33.8061 47.3355C33.8061 44.289 32.4843 41.5512 30.3828 39.6645C26.3981 45.0779 20.7197 36.8661 25.145 30.8694C25.145 30.8694 24.4957 30.951 23.5 31.2652V57.6417C29.1919 57.6417 33.8061 53.0274 33.8061 47.3355Z" fill="#003B8A"/>
</svg>
