<svg width="34" height="34" viewBox="0 0 34 34" fill="none" xmlns="http://www.w3.org/2000/svg">
<rect x="6" y="7" width="22" height="20" fill="#E2E2E2"/>
<path d="M17.0003 0C7.62677 0 0 7.62608 0 16.9997C0 26.3725 7.62608 34.0007 16.9997 34.0007C26.3725 34.0007 34 26.3725 34 16.9997C34 7.62608 26.3739 0 17.0003 0ZM26.3924 15.7568L21.4704 19.3182L23.3665 25.1112C23.3966 25.2023 23.4124 25.2982 23.4124 25.3968C23.4124 25.9028 23.0015 26.3137 22.4955 26.3137C22.2948 26.3137 22.1106 26.2493 21.96 26.1411L16.9997 22.553L12.04 26.1411C11.8894 26.2493 11.7045 26.3137 11.5038 26.3137C10.9971 26.3137 10.587 25.9035 10.587 25.3968C10.587 25.2968 10.6034 25.2023 10.6335 25.1112L12.5296 19.3182L7.60828 15.7575V15.7568C7.3782 15.5911 7.22893 15.3206 7.22893 15.0152C7.22893 14.5092 7.63841 14.0997 8.14513 14.0997H14.2374L16.1239 8.33343C16.2389 7.95887 16.5874 7.68634 17.0003 7.68634C17.4132 7.68634 17.7618 7.95887 17.8768 8.33343L19.7626 14.0997H25.8542C26.3602 14.0997 26.7704 14.5092 26.7704 15.0152C26.7711 15.3206 26.6218 15.5911 26.3924 15.7568Z" fill="#0057FF"/>
</svg>
