<svg width="37" height="36" viewBox="0 0 37 36" fill="none" xmlns="http://www.w3.org/2000/svg">
<path d="M20.2863 1.12005L24.4595 9.64619C24.7497 10.2392 25.3108 10.6501 25.9598 10.745L35.2917 12.1124C36.9264 12.352 37.5786 14.377 36.3962 15.5388L29.6437 22.1755C29.1744 22.637 28.9598 23.3023 29.071 23.9537L30.6647 33.325C30.9441 34.9662 29.2354 36.2176 27.7736 35.4433L19.4273 31.0191C18.8469 30.7117 18.1531 30.7117 17.5727 31.0191L9.22642 35.4433C7.76463 36.2184 6.05586 34.9662 6.33525 33.325L7.92902 23.9537C8.04016 23.3023 7.8256 22.637 7.35634 22.1755L0.60385 15.5388C-0.57855 14.3762 0.0736226 12.3513 1.7083 12.1124L11.0402 10.745C11.6892 10.6501 12.2503 10.2392 12.5405 9.64619L16.7137 1.12005C17.4438 -0.373349 19.5554 -0.373349 20.2863 1.12005Z" fill="#FDE204"/>
</svg>
